<svg width="243" height="267" viewBox="0 0 243 267" fill="none" xmlns="http://www.w3.org/2000/svg">
<path fill-rule="evenodd" clip-rule="evenodd" d="M97.1194 197.584C80.633 231.279 46.5949 265.371 6.95893 266.924C-2.35868 267.249 -2.30447 252.803 7.03116 252.478C21.0256 251.936 35.5799 244.388 46.9018 236.461C65.3565 223.46 75.7575 205.872 85.7252 187.345C77.5232 190.957 68.6664 192.844 59.7045 192.889C35.1826 192.166 23.3731 171.455 21.3687 149.371C19.5449 129.002 22.8494 107.152 27.0749 86.4226C24.3569 84.806 21.836 82.879 19.563 80.6803C3.31137 65.0426 3.43774 39.2748 5.24348 18.4727C5.78521 12.285 6.56168 6.12747 7.57288 0H22.0188C20.4437 9.05925 19.4366 18.2081 19.0032 27.393C18.317 42.2181 20.2131 60.9436 30.3613 70.8391L31.0655 67.679C36.1212 44.3164 43.8337 21.609 54.0525 0H70.0333C57.5775 24.4111 48.5075 50.4063 43.0737 77.2675C46.1535 77.7784 49.2896 77.8574 52.3913 77.5022C66.4941 75.9312 78.5022 67.0109 88.7588 57.8739C98.4737 49.2244 107.845 40.0873 116.874 30.7878C126.494 21.0498 135.584 10.8026 144.105 0.0902875H162.162C157.816 6.08533 153.236 11.9359 148.42 17.642C130.652 38.8053 110.536 60.2213 88.3977 76.8702C74.8908 86.9823 56.8514 94.0789 40.4373 91.3161C38.0464 105.319 36.4308 119.443 35.5979 133.625C34.4603 153.072 38.0176 180.935 64.1466 178.353C75.5949 177.233 86.6642 171.726 97.0291 166.507C116.513 132.36 141.342 100.164 172.382 75.8409C181.455 68.5553 191.181 62.1236 201.437 56.6279C211.495 51.4454 223.846 45.4865 234.265 53.0164C257.09 69.557 226.103 98.9724 212.939 110.005C189.843 129.007 165.11 145.926 139.031 160.566C128.762 166.429 118.319 171.972 107.701 177.197C104.029 183.89 100.502 190.686 97.1194 197.584ZM204.236 71.6155C171.534 90.2868 145.17 119.179 124.223 150.093C123.932 150.526 123.656 150.96 123.38 151.393C122.921 152.115 122.461 152.838 121.93 153.56C125.686 151.501 129.424 149.425 133.144 147.276C155.865 134.313 177.594 119.683 198.15 103.505C207.594 96.011 216.966 87.7949 223.575 77.5925C226.789 72.6448 231.195 64.1578 221.661 63.8508C217.259 63.7056 211.676 67.1137 207.236 69.8244C206.157 70.4829 205.146 71.1003 204.236 71.6155Z" fill="#C2ADFF"/>
</svg>
