<svg width="1282" height="630" viewBox="0 0 1282 630" fill="none" xmlns="http://www.w3.org/2000/svg">
<path fill-rule="evenodd" clip-rule="evenodd" d="M1080.2 233.378C1099.95 275.674 1148.39 289.611 1190.78 296.225C1220.88 300.821 1251.29 303.057 1281.74 302.913V317.728C1276.94 317.74 1272.12 317.703 1267.3 317.616C1237.65 317.109 1208.07 314.33 1178.84 309.302C1152.31 304.632 1125.37 297.103 1103.05 281.596C1083.82 268.257 1067.87 248.884 1061.65 226.036C1059.71 218.823 1058.86 211.361 1059.13 203.897C1018.04 219.347 972.273 223.943 931.882 203.505C891.061 182.824 867.97 138.734 863.038 94.5315C859.955 66.8609 867.515 31.7678 877.11 4.81345C878.146 1.90409 880.92 0 884.008 0V0C889.269 0 892.875 5.32416 891.143 10.2916C879.255 44.376 873.08 86.5421 883.476 120.406C897.32 165.599 933.638 198.218 981.539 201.954C1009.34 204.084 1036.04 197.769 1061.26 187.121C1063.98 175.427 1068.18 164.127 1073.75 153.493C1086.12 129.515 1101.2 107.042 1118.7 86.5169C1135.33 66.8071 1154.07 47.5084 1177.12 35.3276C1187.63 29.5576 1199.18 25.9376 1211.11 24.6788C1220 23.8941 1236.85 24.2678 1243.15 31.7407C1249.95 39.7366 1247.18 53.1878 1243.15 61.6322C1237.87 72.7088 1228.95 81.7619 1220.41 90.4395L1220.36 90.4921L1219.35 91.5217C1219 91.8778 1218.65 92.2334 1218.3 92.5886C1179.51 132.251 1134 167.859 1084.4 192.856C1081.19 194.463 1077.9 196.032 1074.6 197.545C1073.08 209.778 1075.02 222.192 1080.2 233.378ZM1232.11 48.5096C1232.62 44.5173 1229.36 41.2916 1225.42 40.4959C1181.25 31.5878 1139.52 82.165 1116.46 113.307C1102.66 131.971 1086.4 154.968 1078.59 179.106C1094.74 170.759 1110.34 161.399 1125.3 151.083C1146.76 136.532 1167.14 120.435 1186.26 102.92C1196.07 93.9026 1205.53 84.5615 1214.62 74.8965C1215.07 74.4215 1215.54 73.9288 1216.02 73.4196L1216.04 73.3989C1222.21 66.9316 1230.91 57.8113 1232.11 48.5096Z" fill="#C2ADFF"/>
<path fill-rule="evenodd" clip-rule="evenodd" d="M625.1 78.7232C625.989 79.3147 626.997 79.7037 628.052 79.8628C629.05 80.164 630.1 80.2531 631.135 80.1243C635.908 80.3751 640.632 79.0474 644.576 76.3461C648.52 73.6448 651.464 69.7203 652.956 65.1786C656.3 54.4176 648.733 43.8435 638.29 41.0598C627.847 38.2762 616.114 44.2545 613.219 54.5671C610.453 64.5994 616.152 74.5944 625.1 78.7232ZM634.329 55.4638C641.709 57.0892 638.253 66.449 632.032 65.4401C625.138 63.4224 627.043 53.8758 634.329 55.4638Z" fill="#C2ADFF"/>
<path fill-rule="evenodd" clip-rule="evenodd" d="M142.203 551.592C132.04 548.864 120.027 554.786 117.132 565.174C114.348 575.113 120.065 585.108 129.013 589.255C129.892 589.848 130.896 590.232 131.946 590.376C132.948 590.693 134.006 590.789 135.048 590.656C139.821 590.904 144.543 589.575 148.486 586.874C152.429 584.173 155.375 580.25 156.869 575.71C160.213 564.931 152.628 554.375 142.203 551.592ZM135.926 575.972C129.032 573.936 130.956 564.389 138.224 565.996C145.491 567.602 142.147 576.981 135.926 575.972Z" fill="#C2ADFF"/>
<path fill-rule="evenodd" clip-rule="evenodd" d="M837.723 557.009C835.425 543.596 842.786 528.986 856.406 525.044C871.519 520.654 887.399 531.826 890.388 546.828C893.228 561.512 884.746 576.458 869.315 578.326C863.074 579.038 856.768 577.743 851.312 574.629C845.857 571.515 841.535 566.744 838.975 561.007C838.62 560.424 838.343 559.796 838.153 559.139C837.903 558.455 837.758 557.737 837.723 557.009ZM859.544 539.71C853.697 542.082 851.174 549.387 852.669 555.16H852.632C857.265 567.77 877.927 565.94 875.966 550.788C874.994 543.446 867.017 536.571 859.544 539.71Z" fill="#C2ADFF"/>
<path fill-rule="evenodd" clip-rule="evenodd" d="M1201.58 207.447C1198.81 217.386 1204.51 227.399 1213.46 231.528C1214.35 232.121 1215.35 232.504 1216.41 232.649C1217.41 232.966 1218.47 233.062 1219.51 232.929C1224.28 233.176 1229 231.846 1232.94 229.145C1236.88 226.444 1239.82 222.522 1241.31 217.984C1244.66 207.204 1237.09 196.648 1226.65 193.865C1216.21 191.081 1204.47 197.059 1201.58 207.447ZM1220.39 218.245C1213.5 216.227 1215.4 206.681 1222.69 208.269C1229.97 209.857 1226.61 219.254 1220.39 218.245Z" fill="#C2ADFF"/>
<path d="M1243.01 552.546C1229.17 544.789 1213.76 540.231 1197.91 539.206C1182.07 538.181 1166.21 540.715 1151.47 546.623C1150.09 540.673 1148.74 534.717 1147.39 528.761L1147.39 528.75L1147.37 528.692L1147.37 528.689L1147.37 528.68L1147.37 528.667C1143.02 509.466 1138.66 490.271 1133.24 471.316C1123.5 437.258 1108.09 407.591 1084.27 381.174C1059.99 354.141 1029.98 332.413 998.465 314.46C990.095 309.677 982.566 322.587 990.992 327.351C1023.54 345.902 1054.08 368.451 1078.48 397.11C1089.82 410.326 1099.36 424.989 1106.84 440.714C1114.78 457.53 1119.44 475.933 1124.01 493.948C1124.24 494.887 1124.48 495.825 1124.72 496.761C1127.17 506.354 1129.36 516.299 1131.56 526.356L1131.57 526.362C1133.52 535.281 1135.5 544.289 1137.7 553.218C1123.64 560.932 1111.5 571.732 1102.2 584.807C1092.91 597.882 1086.69 612.893 1084.03 628.713C1084.03 629.105 1084.03 629.498 1083.88 629.89H1099.37C1103.57 608.051 1114.31 588.079 1132.81 573.582C1135.54 571.452 1138.39 569.475 1141.35 567.66C1147.85 590.471 1156.59 612.179 1171.24 629.89H1192.54C1190.95 628.47 1189.42 627.032 1188 625.574C1170 606.986 1161.11 584.922 1154.82 560.747C1176.19 551.753 1200.18 551.206 1221.94 559.215C1245.87 568.071 1287.74 600.316 1272.98 629.89H1281.59V588.845C1272.25 573.432 1256.82 560.336 1243.01 552.546Z" fill="#C2ADFF"/>
<path d="M659.149 570.667C664.044 562.13 671.89 552.191 682.913 552.789C693.169 553.33 698.643 562.41 699.876 571.583C702.51 590.62 696.924 611.843 688.853 629.853H672.32C675.953 622.68 678.881 615.172 681.063 607.434C683.903 597.215 687.191 583.894 685.192 573.246C682.165 557.142 666.921 588.229 665.052 592.862C660.401 604.765 657.263 617.205 655.711 629.89H640.766C642.792 609.102 649.048 588.949 659.149 570.667Z" fill="#C2ADFF"/>
<path d="M595.845 547.894C576.061 535.713 550.036 547.52 531.429 556.618C524.831 559.86 518.425 563.478 512.242 567.454C513.22 552.864 512.474 538.209 510.019 523.794C506.115 501.824 496.942 477.256 479.773 462.143C460.212 444.862 435.851 448.916 414.217 459.882C393.405 470.4 374.087 484.337 356.302 499.301C320.189 529.679 290.298 566.987 264.909 606.612C260.014 614.272 255.275 622.031 250.691 629.89H268.066C288.841 595.384 312.623 562.634 340.927 533.882C355.557 518.869 371.508 505.201 388.585 493.043C389.616 492.318 390.665 491.577 391.731 490.823L391.733 490.822C407.901 479.396 427.987 465.201 447.826 464.833C470.656 464.403 483.64 488.279 490.179 506.999C497.502 527.997 498.81 550.36 497.016 572.386C496.872 574.014 496.695 575.642 496.518 577.261L496.426 578.113C496.405 578.309 496.383 578.505 496.362 578.701C489.662 583.971 483.303 589.662 477.325 595.739C467.128 606.132 458.049 617.566 450.236 629.853H468.339C475.513 619.587 483.713 610.079 492.813 601.474C490.945 611.021 488.497 620.493 485.788 629.853H501.351C504.377 618.811 506.955 607.658 508.823 596.393C509.365 593.235 509.851 590.06 510.281 586.884C518.918 580.541 528.08 574.947 537.669 570.163C549.289 564.372 563.151 557.851 576.341 557.739C591.025 557.627 597.377 569.696 600.759 582.232C603.426 591.995 605.189 602.045 606.945 612.054L606.945 612.056L606.947 612.066L606.948 612.068L606.949 612.077C607.651 616.079 608.352 620.074 609.11 624.042C609.431 625.649 609.725 627.353 610.015 629.034L610.015 629.036L610.156 629.853H625.382C623.738 621.209 622.088 612.565 620.431 603.922C620.026 601.777 619.636 599.558 619.238 597.292C616.06 579.179 612.35 558.039 595.845 547.894Z" fill="#C2ADFF"/>
<path d="M1217.34 447.513C1212.32 424.683 1222.91 399.089 1243.87 387.879C1249.63 384.853 1255.95 383.038 1262.44 382.546C1268.92 382.054 1275.44 382.897 1281.59 385.021V400.957C1277.72 398.922 1273.49 397.679 1269.13 397.3C1264.77 396.922 1260.39 397.416 1256.22 398.752C1237.58 404.843 1227.4 426.776 1232.1 445.234C1237.61 462.533 1256.11 473.22 1273.82 472.678C1276.48 472.601 1279.11 472.193 1281.67 471.464V486.764C1256.11 491.192 1226.01 475.368 1217.7 449.213C1217.52 448.66 1217.41 448.09 1217.34 447.513Z" fill="#C2ADFF"/>
<path d="M9.80275 506.007C8.57836 505.661 7.29046 505.602 6.03954 505.835C4.78862 506.068 3.60857 506.588 2.59147 507.352C1.50981 508.336 0.721535 509.6 0.313968 511.004C-0.0935983 512.408 -0.104573 513.898 0.282265 515.308C0.669104 516.718 1.43865 517.993 2.50569 518.993C3.57274 519.993 4.89565 520.677 6.32789 520.972C8.23497 521.239 10.1729 520.781 11.7591 519.689C13.3454 518.597 14.4648 516.951 14.8965 515.074C15.3281 513.197 15.0406 511.227 14.0907 509.552C13.1408 507.877 11.5975 506.619 9.76543 506.026L9.80275 506.007Z" fill="#C2ADFF"/>
<path d="M272.537 510.759C270.951 511.851 269.013 512.308 267.106 512.041L267.069 512.06C265.636 511.77 264.312 511.088 263.244 510.09C262.176 509.092 261.406 507.818 261.019 506.408C260.632 504.999 260.643 503.51 261.051 502.107C261.46 500.703 262.249 499.441 263.332 498.459C264.347 497.69 265.526 497.167 266.778 496.93C268.029 496.693 269.318 496.75 270.544 497.096C272.376 497.689 273.919 498.947 274.869 500.622C275.819 502.297 276.106 504.267 275.675 506.144C275.243 508.021 274.124 509.667 272.537 510.759Z" fill="#C2ADFF"/>
<path d="M1008.96 591.403C1007.74 591.057 1006.45 590.998 1005.2 591.231C1003.95 591.465 1002.77 591.984 1001.75 592.749C1000.67 593.732 999.883 594.996 999.476 596.4C999.068 597.805 999.057 599.294 999.444 600.704C999.831 602.114 1000.6 603.39 1001.67 604.389C1002.73 605.389 1004.06 606.074 1005.49 606.368C1007.4 606.635 1009.33 606.177 1010.92 605.086C1012.51 603.994 1013.63 602.347 1014.06 600.47C1014.49 598.594 1014.2 596.623 1013.25 594.948C1012.3 593.273 1010.76 592.015 1008.93 591.422L1008.96 591.403Z" fill="#C2ADFF"/>
<path d="M761.9 130.192C763.154 129.958 764.445 130.017 765.672 130.364L765.635 130.383C767.472 130.973 769.021 132.233 769.973 133.911C770.926 135.589 771.214 137.564 770.779 139.445C770.344 141.325 769.218 142.973 767.626 144.063C766.033 145.153 764.089 145.604 762.179 145.328C760.747 145.034 759.424 144.35 758.357 143.35C757.289 142.35 756.52 141.075 756.133 139.665C755.746 138.255 755.757 136.765 756.165 135.361C756.572 133.957 757.361 132.693 758.442 131.709C759.463 130.944 760.646 130.425 761.9 130.192Z" fill="#C2ADFF"/>
<path d="M1023.28 59.3902C1025.19 59.6662 1027.13 59.2146 1028.72 58.1248C1030.32 57.0351 1031.44 55.3867 1031.88 53.5064C1032.31 51.6261 1032.02 49.6511 1031.07 47.9727C1030.12 46.2943 1028.57 45.035 1026.73 44.4444C1025.5 44.0977 1024.21 44.0387 1022.96 44.272C1021.71 44.5053 1020.52 45.0246 1019.5 45.7896C1018.42 46.7733 1017.63 48.0373 1017.22 49.4415C1016.82 50.8457 1016.81 52.3352 1017.19 53.7453C1017.58 55.1553 1018.35 56.4307 1019.42 57.4304C1020.48 58.43 1021.81 59.1148 1023.24 59.4089L1023.28 59.3902Z" fill="#C2ADFF"/>
</svg>
