<svg width="16" height="17" viewBox="0 0 16 17" fill="none" xmlns="http://www.w3.org/2000/svg">
<path d="M9.19933 9.59239C8.22197 10.6008 8.15088 11.8581 8.06648 14.6125C10.6343 14.6125 12.4068 14.6036 13.322 13.7151C14.2105 12.7999 14.2194 10.9429 14.2194 8.45954C11.465 8.54839 10.2078 8.61503 9.19933 9.59239ZM1.78027 8.45954C1.78027 10.9429 1.78916 12.7999 2.67767 13.7151C3.59283 14.6036 5.36541 14.6125 7.9332 14.6125C7.84435 11.8581 7.77771 10.6008 6.80035 9.59239C5.79189 8.61503 4.53465 8.54395 1.78027 8.45954ZM7.9332 2.17334C5.36985 2.17334 3.59283 2.18222 2.67767 3.07073C1.78916 3.9859 1.78027 5.84288 1.78027 8.32627C4.53465 8.23741 5.79189 8.17078 6.80035 7.19342C7.77771 6.18496 7.84879 4.92772 7.9332 2.17334ZM9.19933 7.19342C8.22197 6.18496 8.15088 4.92772 8.06648 2.17334C10.6343 2.17334 12.4068 2.18222 13.322 3.07073C14.2105 3.9859 14.2194 5.84288 14.2194 8.32627C11.465 8.23741 10.2078 8.17078 9.19933 7.19342Z" fill="#1F1F1F"/>
</svg>
