<svg width="13" height="16" viewBox="0 0 13 16" fill="none" xmlns="http://www.w3.org/2000/svg">
<path fill-rule="evenodd" clip-rule="evenodd" d="M6.61337 3.59775L6.57105 3.66417L6.52872 3.59775C6.23457 3.13862 5.81993 2.54212 5.35095 2.02151C4.89817 1.5189 4.32876 1.01095 3.71479 0.838645C3.38895 0.747201 3.03409 0.745995 2.69012 0.905878C2.35314 1.06252 2.08263 1.34775 1.86753 1.72421C1.6516 2.10212 1.54394 2.48001 1.57066 2.85053C1.59775 3.22617 1.75918 3.54085 1.98638 3.79306C2.41848 4.27272 3.11553 4.55795 3.7583 4.73834C4.42142 4.92443 5.12252 5.0241 5.64988 5.07771C5.88691 5.1018 6.09193 5.11688 6.24679 5.12622H6.8953C7.05016 5.11688 7.25518 5.1018 7.49221 5.07771C8.01957 5.0241 8.72067 4.92443 9.38379 4.73834C10.0266 4.55795 10.7236 4.27272 11.1557 3.79306C11.3829 3.54085 11.5443 3.22617 11.5714 2.85053C11.5981 2.48001 11.4905 2.10212 11.2746 1.72421C11.0595 1.34775 10.789 1.06252 10.452 0.905878C10.108 0.745995 9.75314 0.747201 9.4273 0.838645C8.81333 1.01095 8.24392 1.5189 7.79114 2.02151C7.32216 2.54212 6.90752 3.13862 6.61337 3.59775ZM4.60797 2.69082C5.00472 3.13125 5.3688 3.64621 5.64442 4.07158C5.16275 4.01883 4.57291 3.92831 4.0285 3.77553C3.42289 3.60557 2.96204 3.38204 2.72936 3.12375C2.62418 3.00699 2.57649 2.89538 2.56807 2.7786C2.55928 2.65668 2.58971 2.47599 2.7358 2.22031C2.88271 1.96318 3.01715 1.85662 3.11163 1.8127C3.19913 1.77203 3.30228 1.76151 3.44458 1.80145C3.76691 1.89191 4.17437 2.2095 4.60797 2.69082ZM7.49767 4.07158C7.77329 3.64621 8.13737 3.13125 8.53412 2.69082C8.96772 2.2095 9.37518 1.89191 9.69751 1.80145C9.83982 1.76151 9.94296 1.77203 10.0305 1.8127C10.1249 1.85662 10.2594 1.96318 10.4063 2.22031C10.5524 2.47599 10.5828 2.65668 10.574 2.7786C10.5656 2.89538 10.5179 3.00699 10.4127 3.12375C10.18 3.38204 9.7192 3.60557 9.11359 3.77553C8.56918 3.92831 7.97934 4.01883 7.49767 4.07158Z" fill="white"/>
<path d="M7.07153 5.12866V10.4863H12.3417V10.4815C12.739 10.2117 13 9.75622 13 9.23978V6.62866C13 5.80024 12.3284 5.12866 11.5 5.12866H7.07153Z" fill="white"/>
<path d="M12.3417 11.4863H7.07153V16.0096H10.8417C11.6701 16.0096 12.3417 15.338 12.3417 14.5096V11.4863Z" fill="white"/>
<path d="M6.07153 16.0096V11.4863H0.802002V14.5096C0.802002 15.338 1.47358 16.0096 2.302 16.0096H6.07153Z" fill="white"/>
<path d="M0.802002 10.4863H6.07153V5.12866H1.64282C0.814395 5.12866 0.142822 5.80023 0.142822 6.62866V9.23977C0.142822 9.75661 0.404211 10.2124 0.802002 10.4821V10.4863Z" fill="white"/>
</svg>
