<svg width="1282" height="622" viewBox="0 0 1282 622" fill="none" xmlns="http://www.w3.org/2000/svg">
<path fill-rule="evenodd" clip-rule="evenodd" d="M1080.2 224.878C1099.95 267.174 1148.39 281.111 1190.78 287.725C1220.88 292.321 1251.29 294.557 1281.74 294.413V309.228C1276.94 309.24 1272.12 309.203 1267.3 309.116C1237.65 308.609 1208.07 305.83 1178.84 300.802C1152.31 296.132 1125.37 288.603 1103.05 273.096C1083.82 259.757 1067.87 240.384 1061.65 217.536C1059.71 210.323 1058.86 202.861 1059.13 195.397C1018.04 210.847 972.273 215.443 931.882 195.005C891.061 174.324 867.97 130.234 863.038 86.0315C859.955 58.3609 867.515 23.2678 877.11 -3.68655C878.146 -6.59591 880.92 -8.5 884.008 -8.5C889.269 -8.5 892.875 -3.17584 891.143 1.7916C879.255 35.876 873.08 78.0421 883.476 111.906C897.32 157.099 933.638 189.718 981.539 193.454C1009.34 195.584 1036.04 189.269 1061.26 178.621C1063.98 166.927 1068.18 155.627 1073.75 144.993C1086.12 121.015 1101.2 98.5418 1118.7 78.0169C1135.33 58.3072 1154.07 39.0084 1177.12 26.8276C1187.63 21.0576 1199.18 17.4376 1211.11 16.1788C1220 15.3941 1236.85 15.7678 1243.15 23.2407C1249.95 31.2366 1247.18 44.6878 1243.15 53.1322C1237.87 64.2088 1228.95 73.2619 1220.41 81.9395L1220.36 81.9921L1219.35 83.0217C1219 83.3778 1218.65 83.7334 1218.3 84.0886C1179.51 123.751 1134 159.359 1084.4 184.356C1081.19 185.963 1077.9 187.532 1074.6 189.045C1073.08 201.278 1075.02 213.692 1080.2 224.878ZM1232.11 40.0096C1232.62 36.0173 1229.36 32.7916 1225.42 31.9959C1181.25 23.0878 1139.52 73.665 1116.46 104.807C1102.66 123.471 1086.4 146.468 1078.59 170.606C1094.74 162.259 1110.34 152.899 1125.3 142.583C1146.76 128.032 1167.14 111.935 1186.26 94.4199C1196.07 85.4026 1205.53 76.0615 1214.62 66.3965C1215.07 65.9215 1215.54 65.4288 1216.02 64.9196L1216.04 64.8989C1222.21 58.4316 1230.91 49.3113 1232.11 40.0096Z" fill="#C2ADFF"/>
<path fill-rule="evenodd" clip-rule="evenodd" d="M625.1 70.2232C625.989 70.8147 626.997 71.2037 628.052 71.3628C629.05 71.664 630.1 71.7531 631.135 71.6243C635.908 71.8751 640.632 70.5474 644.576 67.8461C648.52 65.1449 651.464 61.2203 652.956 56.6786C656.3 45.9176 648.733 35.3435 638.29 32.5598C627.847 29.7762 616.114 35.7545 613.219 46.0671C610.453 56.0994 616.152 66.0944 625.1 70.2232ZM634.329 46.9638C641.709 48.5892 638.253 57.949 632.032 56.9401C625.138 54.9224 627.043 45.3758 634.329 46.9638Z" fill="#C2ADFF"/>
<path fill-rule="evenodd" clip-rule="evenodd" d="M142.203 543.092C132.04 540.364 120.027 546.286 117.132 556.674C114.348 566.613 120.065 576.608 129.013 580.755C129.892 581.348 130.896 581.732 131.946 581.876C132.948 582.193 134.006 582.289 135.048 582.156C139.821 582.404 144.543 581.075 148.486 578.374C152.429 575.673 155.375 571.75 156.869 567.21C160.213 556.431 152.628 545.875 142.203 543.092ZM135.926 567.472C129.032 565.436 130.956 555.889 138.224 557.496C145.491 559.102 142.147 568.481 135.926 567.472Z" fill="#C2ADFF"/>
<path fill-rule="evenodd" clip-rule="evenodd" d="M837.723 548.509C835.425 535.096 842.786 520.486 856.406 516.544C871.519 512.154 887.399 523.326 890.388 538.328C893.228 553.012 884.746 567.958 869.315 569.826C863.074 570.538 856.768 569.243 851.312 566.129C845.857 563.015 841.535 558.244 838.975 552.507C838.62 551.924 838.343 551.296 838.153 550.639C837.903 549.955 837.758 549.237 837.723 548.509ZM859.544 531.21C853.697 533.582 851.174 540.887 852.669 546.66H852.632C857.265 559.27 877.927 557.44 875.966 542.288C874.994 534.946 867.017 528.071 859.544 531.21Z" fill="#C2ADFF"/>
<path fill-rule="evenodd" clip-rule="evenodd" d="M1201.58 198.947C1198.81 208.886 1204.51 218.899 1213.46 223.028C1214.35 223.621 1215.35 224.004 1216.41 224.149C1217.41 224.466 1218.47 224.562 1219.51 224.429C1224.28 224.676 1229 223.346 1232.94 220.645C1236.88 217.944 1239.82 214.022 1241.31 209.484C1244.66 198.704 1237.09 188.148 1226.65 185.365C1216.21 182.581 1204.47 188.559 1201.58 198.947ZM1220.39 209.745C1213.5 207.727 1215.4 198.181 1222.69 199.769C1229.97 201.357 1226.61 210.754 1220.39 209.745Z" fill="#C2ADFF"/>
<path d="M1243.01 544.046C1229.17 536.289 1213.76 531.731 1197.91 530.706C1182.07 529.681 1166.21 532.216 1151.47 538.123C1150.09 532.173 1148.74 526.217 1147.39 520.261L1147.39 520.25L1147.37 520.192L1147.37 520.189L1147.37 520.18L1147.37 520.167C1143.02 500.966 1138.66 481.771 1133.24 462.816C1123.5 428.758 1108.09 399.091 1084.27 372.674C1059.99 345.641 1029.98 323.913 998.465 305.96C990.095 301.177 982.566 314.087 990.992 318.851C1023.54 337.402 1054.08 359.951 1078.48 388.61C1089.82 401.826 1099.36 416.489 1106.84 432.214C1114.78 449.03 1119.44 467.433 1124.01 485.448C1124.24 486.387 1124.48 487.325 1124.72 488.261C1127.17 497.854 1129.36 507.799 1131.56 517.856L1131.57 517.862C1133.52 526.781 1135.5 535.789 1137.7 544.718C1123.64 552.432 1111.5 563.232 1102.2 576.307C1092.91 589.382 1086.69 604.393 1084.03 620.213C1084.03 620.605 1084.03 620.998 1083.88 621.39H1099.37C1103.57 599.551 1114.31 579.579 1132.81 565.082C1135.54 562.952 1138.39 560.975 1141.35 559.16C1147.85 581.971 1156.59 603.679 1171.24 621.39H1192.54C1190.95 619.97 1189.42 618.532 1188 617.074C1170 598.486 1161.11 576.422 1154.82 552.247C1176.19 543.253 1200.18 542.706 1221.94 550.715C1245.87 559.571 1287.74 591.816 1272.98 621.39H1281.59V580.345C1272.25 564.932 1256.82 551.836 1243.01 544.046Z" fill="#C2ADFF"/>
<path d="M659.149 562.167C664.044 553.63 671.89 543.691 682.913 544.289C693.169 544.83 698.643 553.91 699.876 563.083C702.51 582.12 696.924 603.343 688.853 621.353H672.32C675.953 614.18 678.881 606.672 681.063 598.934C683.903 588.715 687.191 575.394 685.192 564.746C682.165 548.642 666.921 579.729 665.052 584.362C660.401 596.265 657.263 608.705 655.711 621.39H640.766C642.792 600.602 649.048 580.449 659.149 562.167Z" fill="#C2ADFF"/>
<path d="M595.845 539.394C576.061 527.213 550.036 539.02 531.429 548.118C524.831 551.36 518.425 554.978 512.242 558.954C513.22 544.364 512.474 529.709 510.019 515.294C506.115 493.324 496.942 468.756 479.773 453.643C460.212 436.362 435.851 440.416 414.217 451.382C393.405 461.9 374.087 475.837 356.302 490.801C320.189 521.179 290.298 558.487 264.909 598.112C260.014 605.772 255.275 613.531 250.691 621.39H268.066C288.841 586.884 312.623 554.134 340.927 525.382C355.557 510.369 371.508 496.701 388.585 484.543C389.616 483.818 390.665 483.077 391.731 482.323L391.733 482.322C407.901 470.896 427.987 456.701 447.826 456.333C470.656 455.903 483.64 479.779 490.179 498.499C497.502 519.497 498.81 541.86 497.016 563.886C496.872 565.514 496.695 567.142 496.518 568.761L496.426 569.613C496.405 569.809 496.383 570.005 496.362 570.201C489.662 575.471 483.303 581.162 477.325 587.239C467.128 597.632 458.049 609.066 450.236 621.353H468.339C475.513 611.087 483.713 601.579 492.813 592.974C490.945 602.521 488.497 611.993 485.788 621.353H501.351C504.377 610.311 506.955 599.158 508.823 587.893C509.365 584.735 509.851 581.56 510.281 578.384C518.918 572.041 528.08 566.447 537.669 561.663C549.289 555.872 563.151 549.352 576.341 549.239C591.025 549.127 597.377 561.196 600.759 573.732C603.426 583.495 605.189 593.545 606.945 603.554L606.945 603.556L606.947 603.566L606.948 603.568L606.949 603.577C607.651 607.579 608.352 611.574 609.11 615.542C609.431 617.149 609.725 618.853 610.015 620.534L610.015 620.536L610.156 621.353H625.382C623.738 612.709 622.088 604.065 620.431 595.422C620.026 593.277 619.636 591.058 619.238 588.792C616.06 570.679 612.35 549.539 595.845 539.394Z" fill="#C2ADFF"/>
<path d="M1217.34 439.013C1212.32 416.183 1222.91 390.589 1243.87 379.379C1249.63 376.353 1255.95 374.538 1262.44 374.046C1268.92 373.554 1275.44 374.397 1281.59 376.521V392.457C1277.72 390.422 1273.49 389.179 1269.13 388.8C1264.77 388.422 1260.39 388.916 1256.22 390.252C1237.58 396.343 1227.4 418.276 1232.1 436.734C1237.61 454.033 1256.11 464.72 1273.82 464.178C1276.48 464.101 1279.11 463.693 1281.67 462.964V478.264C1256.11 482.692 1226.01 466.868 1217.7 440.713C1217.52 440.16 1217.41 439.59 1217.34 439.013Z" fill="#C2ADFF"/>
<path d="M9.80275 497.507C8.57836 497.161 7.29046 497.102 6.03954 497.335C4.78862 497.568 3.60857 498.088 2.59147 498.852C1.50981 499.836 0.721535 501.1 0.313968 502.504C-0.0935983 503.908 -0.104573 505.398 0.282265 506.808C0.669104 508.218 1.43865 509.493 2.50569 510.493C3.57274 511.493 4.89565 512.177 6.32789 512.472C8.23497 512.739 10.1729 512.281 11.7591 511.189C13.3454 510.097 14.4648 508.451 14.8965 506.574C15.3281 504.697 15.0406 502.727 14.0907 501.052C13.1408 499.377 11.5975 498.119 9.76543 497.526L9.80275 497.507Z" fill="#C2ADFF"/>
<path d="M272.537 502.259C270.951 503.351 269.013 503.808 267.106 503.541L267.069 503.56C265.636 503.27 264.312 502.588 263.244 501.59C262.176 500.592 261.406 499.318 261.019 497.908C260.632 496.499 260.643 495.01 261.051 493.607C261.46 492.203 262.249 490.941 263.332 489.959C264.347 489.19 265.526 488.667 266.778 488.43C268.029 488.193 269.318 488.25 270.544 488.596C272.376 489.189 273.919 490.447 274.869 492.122C275.819 493.797 276.106 495.767 275.675 497.644C275.243 499.521 274.124 501.167 272.537 502.259Z" fill="#C2ADFF"/>
<path d="M1008.96 582.903C1007.74 582.557 1006.45 582.498 1005.2 582.731C1003.95 582.965 1002.77 583.484 1001.75 584.249C1000.67 585.232 999.883 586.496 999.476 587.9C999.068 589.305 999.057 590.794 999.444 592.204C999.831 593.614 1000.6 594.89 1001.67 595.889C1002.73 596.889 1004.06 597.574 1005.49 597.868C1007.4 598.135 1009.33 597.677 1010.92 596.586C1012.51 595.494 1013.63 593.847 1014.06 591.97C1014.49 590.094 1014.2 588.123 1013.25 586.448C1012.3 584.773 1010.76 583.515 1008.93 582.922L1008.96 582.903Z" fill="#C2ADFF"/>
<path d="M761.9 121.692C763.154 121.458 764.445 121.517 765.672 121.864L765.635 121.883C767.472 122.473 769.021 123.733 769.973 125.411C770.926 127.089 771.214 129.064 770.779 130.945C770.344 132.825 769.219 134.473 767.626 135.563C766.033 136.653 764.089 137.104 762.179 136.828C760.747 136.534 759.424 135.85 758.357 134.85C757.289 133.85 756.52 132.575 756.133 131.165C755.746 129.755 755.757 128.265 756.165 126.861C756.572 125.457 757.361 124.193 758.442 123.209C759.463 122.444 760.646 121.925 761.9 121.692Z" fill="#C2ADFF"/>
<path d="M1023.28 50.8902C1025.19 51.1662 1027.13 50.7146 1028.72 49.6248C1030.32 48.5351 1031.44 46.8867 1031.88 45.0064C1032.31 43.1261 1032.02 41.1511 1031.07 39.4727C1030.12 37.7943 1028.57 36.535 1026.73 35.9444C1025.5 35.5977 1024.21 35.5387 1022.96 35.772C1021.71 36.0053 1020.52 36.5246 1019.5 37.2896C1018.42 38.2733 1017.63 39.5373 1017.22 40.9415C1016.82 42.3457 1016.81 43.8352 1017.19 45.2453C1017.58 46.6553 1018.35 47.9307 1019.42 48.9304C1020.48 49.93 1021.81 50.6148 1023.24 50.9089L1023.28 50.8902Z" fill="#C2ADFF"/>
</svg>
