<svg width="226" height="241" viewBox="0 0 226 241" fill="none" xmlns="http://www.w3.org/2000/svg">
<path fill-rule="evenodd" clip-rule="evenodd" d="M0 240.089C35.6173 234.109 65.6855 202.742 80.8681 171.712C84.2509 164.814 87.7781 158.018 91.4498 151.325C102.067 146.1 112.511 140.557 122.779 134.694C148.859 120.054 173.592 103.134 196.688 84.1333C205.962 76.3602 224.083 59.4628 226 44.3718V39.3909C225.378 34.9163 222.959 30.728 218.014 27.1442C207.595 19.6143 195.243 25.5732 185.186 30.7557C174.93 36.2514 165.203 42.6831 156.131 49.9687C125.091 74.292 100.262 106.488 80.7779 140.635C70.4129 145.853 59.3437 151.361 47.8954 152.48C21.7664 155.063 18.2091 127.2 19.3467 107.752C20.1796 93.5712 21.7952 79.4468 24.1861 65.4439C40.6002 68.2067 58.6395 61.1101 72.1465 50.998C91.4156 36.5068 109.153 18.4041 125.143 0L105.393 0C103.817 1.65257 102.228 3.29118 100.623 4.91562C91.5942 14.2152 82.2225 23.3522 72.5076 32.0017C62.251 41.1387 50.2429 50.059 36.14 51.63C33.0384 51.9852 29.9023 51.9062 26.8224 51.3953C30.3766 33.826 35.4863 16.6273 42.0816 0L26.9557 0C21.9481 13.6267 17.8897 27.5955 14.8143 41.8068L14.1101 44.9669C3.96185 35.0714 2.0658 16.3459 2.75196 1.52083C2.77589 1.01378 2.80156 0.506828 2.82898 0L0 0V51.2167C1.01998 52.4642 2.12198 53.6633 3.31176 54.8081C5.58478 57.0068 8.10566 58.9338 10.8236 60.5504C6.59822 81.2802 3.29367 103.13 5.11746 123.498C7.12183 145.583 18.9314 166.294 43.4533 167.017C52.4151 166.971 61.2719 165.085 69.4739 161.473C59.5063 180 49.1052 197.588 30.6506 210.589C21.8041 216.783 10.9843 222.745 0 225.315V240.089ZM107.972 124.221C128.919 93.3064 155.283 64.4146 187.984 45.7433C188.894 45.2286 189.904 44.612 190.981 43.9542L190.985 43.9522C195.425 41.2415 201.008 37.8334 205.41 37.9787C214.944 38.2856 210.538 46.7726 207.324 51.7203C200.715 61.9227 191.343 70.1388 181.899 77.6326C161.343 93.8106 139.614 108.441 116.893 121.404C113.173 123.552 109.435 125.629 105.679 127.688C106.209 126.965 106.669 126.243 107.129 125.521L107.13 125.519C107.406 125.087 107.681 124.654 107.972 124.221Z" fill="#C2ADFF"/>
</svg>
