<svg width="34" height="34" viewBox="0 0 34 34" fill="none" xmlns="http://www.w3.org/2000/svg">
<path d="M16.3344 2.5586C16.7275 1.70624 17.939 1.70624 18.3321 2.5586L21.7306 9.92653C21.8908 10.2739 22.2201 10.5131 22.6 10.5581L30.6575 11.5135C31.5896 11.624 31.964 12.7761 31.2748 13.4134L25.3177 18.9224C25.0368 19.1822 24.9111 19.5692 24.9856 19.9444L26.5669 27.9028C26.7499 28.8234 25.7698 29.5355 24.9507 29.077L17.8705 25.1138C17.5367 24.927 17.1298 24.927 16.796 25.1138L9.71576 29.077C8.89669 29.5355 7.91663 28.8234 8.09957 27.9028L9.68088 19.9444C9.75544 19.5692 9.62969 19.1822 9.34882 18.9224L3.3917 13.4134C2.70255 12.7761 3.07689 11.624 4.00903 11.5135L12.0665 10.5581C12.4464 10.5131 12.7757 10.2739 12.9359 9.92653L16.3344 2.5586Z" fill="#6060F0"/>
</svg>
