<svg width="1821" height="428" viewBox="0 0 1821 428" fill="none" xmlns="http://www.w3.org/2000/svg">
<path d="M16.1502 219.584C21.7787 204.856 30.9875 191.762 42.9447 181.485V168.588C37.9272 172.345 33.2189 176.498 28.8651 181.007C0.478285 210.554 -13.192 264.166 17.1965 297.398C40.6929 323.1 86.7304 325.944 108.43 296.988H94.7825C78.4282 311.705 51.6109 309.976 33.6644 298.057C8.07539 280.998 6.11925 245.992 16.1502 219.584Z" fill="url(#paint0_linear_789_49106)"/>
<path fill-rule="evenodd" clip-rule="evenodd" d="M551.367 79.2845C562.969 81.5356 578 94.1973 583 100.745V114.5C572.999 103.436 560.04 90.0136 544.201 88.5881C537.069 87.915 529.874 88.6845 523.046 90.8508C531.045 102.695 537.003 115.796 540.672 129.609C544.608 144.656 546.939 170.97 525.693 173.753C507.615 176.242 492.251 160.042 487.025 144.339C481.119 126.645 485.034 106.485 498.609 93.4528C501.278 90.885 504.214 88.6095 507.366 86.6649C506.483 85.5789 505.601 84.5154 504.696 83.4972C473.562 47.5895 425.255 27.5201 377.989 28.2441C348.553 28.674 322.849 38.7426 304.115 61.9119C298.83 68.6025 294.343 76.6631 290 84C289 81.5 286.5 75.5 285 73.5C290 61.9119 304.567 43.743 319.591 33.7423C340.543 19.8498 367.129 16.7953 391.678 18.3791C435.844 21.2526 480.011 41.0279 509.9 73.9716C512.163 76.5963 514.425 79.334 516.688 82.1397C527.766 78.0213 539.764 77.0334 551.367 79.2845ZM522.525 163.798C532.3 163.458 533.703 153.593 533.318 146.036C532.413 128.207 524.2 110.106 513.656 95.0366C508.052 98.066 503.337 102.508 499.98 107.921C496.622 113.335 494.738 119.532 494.514 125.899C494.084 137.031 498.021 149.068 506.461 156.67C510.624 160.404 516.756 164.001 522.525 163.798Z" fill="url(#paint1_linear_789_49106)"/>
<path fill-rule="evenodd" clip-rule="evenodd" d="M1393 143.5C1377.41 128.359 1361.55 107.551 1346.89 88.6119C1337.7 76.7321 1328.94 65.4147 1320.93 56.3027C1297.31 29.3913 1266.76 10.3214 1231.49 3.11626C1164.98 -10.5213 1092.95 21.5724 1059.63 80.3957C1048.27 103.125 1044.2 123.127 1043.18 146.742C1042.9 153.016 1043 159.289 1043.31 165.562L1043 165.721C1034.14 171.131 1026.48 178.293 1020.49 186.768C1015.56 193.499 1011.83 200.941 1008.11 208.353L1008.11 208.355C1006.95 210.678 1005.78 212.999 1004.58 215.294C1000.01 224.261 993.963 232.398 986.695 239.364C979.807 245.677 971.997 250.904 963.534 254.865C945.404 263.152 925.365 266.365 905.552 264.162C877.8 261.502 856.32 250.342 833 235.523V248.774C847.751 257.79 861.592 264.886 878.14 269.889C914.439 281.163 957.352 277.526 989.446 252.001C996.581 246.289 1002.81 239.53 1007.92 231.954C1011.9 226.1 1015.09 219.785 1018.29 213.473C1019.96 210.178 1021.63 206.884 1023.4 203.656C1028.55 193.932 1035.7 185.41 1044.38 178.654V179.404C1045.63 190.542 1047.5 201.906 1053.31 211.68C1058.38 220.158 1066.75 227.59 1076.64 229.454C1081.4 230.314 1086.29 230.035 1090.93 228.64C1095.56 227.246 1099.8 224.775 1103.3 221.431C1118.64 207.384 1116.09 183.7 1101.8 169.926C1089.14 157.698 1070.63 155.675 1054.45 160.834C1053.88 140.196 1054.09 122.49 1060.93 102.943C1062.94 97.0087 1065.45 91.2594 1068.45 85.7598C1101.5 27.232 1174.42 -2.56605 1239.4 15.6173C1272.77 24.8227 1299.02 45.1653 1320.75 71.7813C1325.73 77.9005 1331.28 85.046 1337.17 92.6524C1354.37 114.825 1374.6 140.915 1393 156.925V143.5ZM1065.34 169.653C1074.36 168.186 1083.59 170.28 1091.09 175.495C1094.26 177.827 1096.91 180.794 1098.86 184.207C1100.82 187.619 1102.04 191.403 1102.46 195.315C1102.75 199.088 1102.06 202.874 1100.44 206.298C1098.83 209.722 1096.35 212.666 1093.25 214.839C1090.21 217.087 1086.54 218.342 1082.76 218.431C1078.98 218.521 1075.26 217.441 1072.11 215.339C1064.29 210.407 1060.22 201.702 1058.04 192.974C1056.44 186.254 1055.41 179.411 1054.97 172.517C1058.3 171.133 1061.78 170.171 1065.34 169.653Z" fill="url(#paint2_linear_789_49106)"/>
<path fill-rule="evenodd" clip-rule="evenodd" d="M1613.71 337.852C1580.9 325.75 1538.12 309.971 1511 297H1536.83C1560.26 306.867 1587.72 316.92 1611.81 325.743L1611.81 325.744C1632.16 333.199 1650.12 339.775 1661.22 344.616C1680.34 331.969 1705.09 325.407 1725.53 320.73C1754.5 315 1775.15 308.313 1799.5 297H1820.9C1800.32 309.722 1776.44 319.596 1758.02 323.977C1752.11 325.376 1746.11 326.661 1740.09 327.953C1716.87 332.928 1693.22 337.997 1672.76 350.02C1680.44 353.791 1687.9 358.006 1695.1 362.645C1708.63 371.432 1721.37 384.942 1719.26 402.381C1717.4 417.503 1704.57 425.654 1690.29 426.881C1661.33 429.401 1621.01 410.305 1634.63 375.678C1638.31 366.607 1644.07 358.532 1651.46 352.109C1643.16 348.71 1629.6 343.712 1613.71 337.852ZM1700.66 379.992C1707.34 386.804 1712.61 398.702 1707.02 407.807C1702.36 415.414 1692.58 417.14 1684.31 416.89C1670.39 416.504 1650.66 411.713 1644.01 398.225C1636.27 382.536 1650.21 366.437 1662.61 356.81C1676.34 362.645 1690.74 369.752 1700.66 379.924V379.992Z" fill="url(#paint3_linear_789_49106)"/>
<defs>
<linearGradient id="paint0_linear_789_49106" x1="16.157" y1="431.929" x2="813.758" y2="-719.318" gradientUnits="userSpaceOnUse">
<stop stop-color="#605DEC"/>
<stop offset="1" stop-color="#C384F9"/>
</linearGradient>
<linearGradient id="paint1_linear_789_49106" x1="16.1561" y1="438.928" x2="813.757" y2="-712.319" gradientUnits="userSpaceOnUse">
<stop stop-color="#605DEC"/>
<stop offset="1" stop-color="#C384F9"/>
</linearGradient>
<linearGradient id="paint2_linear_789_49106" x1="16.1573" y1="431.929" x2="813.758" y2="-719.318" gradientUnits="userSpaceOnUse">
<stop stop-color="#605DEC"/>
<stop offset="1" stop-color="#C384F9"/>
</linearGradient>
<linearGradient id="paint3_linear_789_49106" x1="16.1576" y1="431.929" x2="813.759" y2="-719.318" gradientUnits="userSpaceOnUse">
<stop stop-color="#605DEC"/>
<stop offset="1" stop-color="#C384F9"/>
</linearGradient>
</defs>
</svg>
