<svg width="16" height="17" viewBox="0 0 16 17" fill="none" xmlns="http://www.w3.org/2000/svg">
<path fill-rule="evenodd" clip-rule="evenodd" d="M2.25967 7.6709C5.60639 6.20469 7.83806 5.23807 8.95468 4.77105C12.1429 3.43761 12.8053 3.20597 13.2371 3.19832C13.3321 3.19664 13.5444 3.22031 13.682 3.33254C13.7981 3.4273 13.8301 3.55532 13.8454 3.64516C13.8607 3.73501 13.8797 3.93969 13.8646 4.09961C13.6918 5.925 12.9442 10.3547 12.5639 12.3992C12.403 13.2643 12.0861 13.5543 11.7794 13.5827C11.1127 13.6444 10.6064 13.1397 9.96072 12.714C8.95031 12.048 8.37949 11.6334 7.39872 10.9835C6.26526 10.2324 7.00003 9.81963 7.64599 9.14499C7.81504 8.96843 10.7524 6.2818 10.8093 6.03808C10.8164 6.0076 10.823 5.89398 10.7559 5.83398C10.6887 5.77399 10.5897 5.7945 10.5182 5.81082C10.4168 5.83395 8.8027 6.90676 5.67575 9.02927C5.21758 9.34563 4.80259 9.49977 4.43076 9.49169C4.02086 9.48279 3.23237 9.25864 2.64621 9.06704C1.92726 8.83204 1.35585 8.7078 1.40561 8.30869C1.43152 8.10081 1.71621 7.88822 2.25967 7.6709Z" fill="#1F1F1F"/>
</svg>
