<svg width="9" height="11" viewBox="0 0 9 11" fill="none" xmlns="http://www.w3.org/2000/svg">
<path d="M8.42559 5.97264C8.42559 8.14077 6.66799 9.89837 4.49987 9.89837C2.33175 9.89837 0.574137 8.14077 0.574137 5.97264C0.574137 3.80452 2.33175 2.04692 4.49987 2.04692C6.66799 2.04692 8.42559 3.80452 8.42559 5.97264Z" stroke="#1F1F1F" stroke-width="0.677083"/>
<path d="M6.53101 4.14587L4.49976 6.17712" stroke="#1F1F1F" stroke-width="0.677083" stroke-linecap="round"/>
<path d="M3.14575 4.82294L4.49992 6.1771" stroke="#1F1F1F" stroke-width="0.677083" stroke-linecap="round"/>
<path d="M3.86328 1.47921L3.86328 0.777749C3.86328 0.566845 4.03425 0.395874 4.24516 0.395874L4.75432 0.395874C4.96523 0.395874 5.1362 0.566845 5.1362 0.777749L5.1362 1.47921" stroke="#1F1F1F" stroke-width="0.677083" stroke-linecap="round"/>
<path d="M6.8499 2.17726L7.33764 1.68952C7.48677 1.54039 7.72856 1.54039 7.87769 1.68952L8.23773 2.04956C8.38686 2.19869 8.38686 2.44048 8.23773 2.58961L7.74998 3.07735" stroke="#1F1F1F" stroke-width="0.677083" stroke-linecap="round"/>
</svg>
