<svg width="16" height="17" viewBox="0 0 16 17" fill="none" xmlns="http://www.w3.org/2000/svg">
<path fill-rule="evenodd" clip-rule="evenodd" d="M14.2374 5.26153C14.3345 4.97683 14.2374 4.76978 13.8077 4.76978H12.3796C12.0192 4.76978 11.8528 4.95095 11.7557 5.14506C11.7557 5.14506 11.0209 6.80148 9.99498 7.87557C9.66224 8.18615 9.50973 8.28967 9.32949 8.28967C9.23244 8.28967 9.10767 8.18615 9.10767 7.90145V5.24859C9.10767 4.91212 8.99675 4.75684 8.69174 4.75684H6.44573C6.2239 4.75684 6.08526 4.91212 6.08526 5.06741C6.08526 5.39093 6.59823 5.46858 6.65369 6.37444V8.34144C6.65369 8.76848 6.57051 8.84613 6.39027 8.84613C5.90502 8.84613 4.72656 7.17676 4.01948 5.27447C3.88084 4.89918 3.74219 4.75684 3.38172 4.75684H1.93984C1.52391 4.75684 1.45459 4.93801 1.45459 5.13212C1.45459 5.48152 1.93984 7.24147 3.71447 9.57081C4.89293 11.1625 6.57051 12.0166 8.08171 12.0166C8.99675 12.0166 9.10767 11.8225 9.10767 11.499V10.2955C9.10767 9.90727 9.19085 9.84257 9.482 9.84257C9.68997 9.84257 10.0643 9.9461 10.91 10.7096C11.8805 11.6155 12.0469 12.0296 12.5876 12.0296H14.0156C14.4315 12.0296 14.6256 11.8355 14.5147 11.4602C14.39 11.0849 13.9186 10.5414 13.3085 9.89433C12.9758 9.53199 12.4767 9.13083 12.3242 8.93671C12.1162 8.6779 12.1717 8.57437 12.3242 8.34144C12.3103 8.34144 14.0572 6.03797 14.2374 5.26153Z" fill="#1F1F1F"/>
</svg>
