<svg width="16" height="17" viewBox="0 0 16 17" fill="none" xmlns="http://www.w3.org/2000/svg">
<path d="M7.99988 3.52982C5.99724 3.52982 3.39796 4.02495 3.39796 4.02495L3.39142 4.03232C2.47932 4.17627 1.78052 4.94966 1.78052 5.89022V8.0624V8.06332V10.8949V10.8958C1.78141 11.345 1.94455 11.7792 2.24065 12.1204C2.53676 12.4616 2.94642 12.6874 3.39609 12.7574L3.39796 12.7602C3.39796 12.7602 5.99724 13.2562 7.99988 13.2562C10.0025 13.2562 12.6018 12.7602 12.6018 12.7602L12.6027 12.7592C13.0529 12.6894 13.463 12.4634 13.7593 12.1218C14.0557 11.7802 14.2188 11.3455 14.2192 10.8958V10.8949V8.06332V8.0624V5.89022C14.2186 5.44086 14.0555 5.00646 13.7594 4.66508C13.4633 4.3237 13.0535 4.09771 12.6037 4.02771L12.6018 4.02495C12.6018 4.02495 10.0025 3.52982 7.99988 3.52982ZM6.58311 6.25467L10.4104 8.42698L6.58311 10.5993V6.25467Z" fill="#1F1F1F"/>
</svg>
